<svg xmlns="http://www.w3.org/2000/svg" fill="none" viewBox="0 0 24 24" height="24" width="24"><path stroke-linejoin="round" stroke-linecap="round" stroke-width="1.5" stroke="#9BBCFD" d="M7.5 18.75C7.5 18.1533 7.26295 17.581 6.84099 17.159C6.41903 16.7371 5.84674 16.5 5.25 16.5M7.5 18.75C7.5 19.3467 7.26295 19.919 6.84099 20.341C6.41903 20.7629 5.84674 21 5.25 21C4.65326 21 4.08097 20.7629 3.65901 20.341C3.23705 19.919 3 19.3467 3 18.75C3 18.1533 3.23705 17.581 3.65901 17.159C4.08097 16.7371 4.65326 16.5 5.25 16.5M7.5 18.75H16.5M5.25 16.5V7.5M18.75 16.5C19.3467 16.5 19.919 16.7371 20.341 17.159C20.7629 17.581 21 18.1533 21 18.75C21 19.3467 20.7629 19.919 20.341 20.341C19.919 20.7629 19.3467 21 18.75 21C18.1533 21 17.581 20.7629 17.159 20.341C16.7371 19.919 16.5 19.3467 16.5 18.75M18.75 16.5C18.1533 16.5 17.581 16.7371 17.159 17.159C16.7371 17.581 16.5 18.1533 16.5 18.75M18.75 16.5V7.5M16.5 5.25C16.5 4.65326 16.7371 4.08097 17.159 3.65901C17.581 3.23705 18.1533 3 18.75 3C19.3467 3 19.919 3.23705 20.341 3.65901C20.7629 4.08097 21 4.65326 21 5.25C21 5.84674 20.7629 6.41903 20.341 6.84099C19.919 7.26295 19.3467 7.5 18.75 7.5M16.5 5.25C16.5 5.84674 16.7371 6.41903 17.159 6.84099C17.581 7.26295 18.1533 7.5 18.75 7.5M16.5 5.25H7.5M7.5 5.25C7.5 4.65326 7.26295 4.08097 6.84099 3.65901C6.41903 3.23705 5.84674 3 5.25 3C4.65326 3 4.08097 3.23705 3.65901 3.65901C3.23705 4.08097 3 4.65326 3 5.25C3 5.84674 3.23705 6.41903 3.65901 6.84099C4.08097 7.26295 4.65326 7.5 5.25 7.5M7.5 5.25C7.5 5.84674 7.26295 6.41903 6.84099 6.84099C6.41903 7.26295 5.84674 7.5 5.25 7.5"/></svg>