<svg xmlns="http://www.w3.org/2000/svg" fill="none" viewBox="0 0 24 24" height="24" width="24"><path stroke-linejoin="round" stroke-linecap="round" stroke-width="1.5" stroke="#9BBCFD" d="M12 7V12L15 15"/><path stroke-linecap="round" stroke-width="1.5" stroke="#9BBCFD" d="M21 12C21 10.22 20.4722 8.47991 19.4832 6.99987C18.4943 5.51983 17.0887 4.36627 15.4442 3.68508C13.7996 3.0039 11.99 2.82567 10.2442 3.17293C8.49836 3.5202 6.89471 4.37737 5.63604 5.63604C4.37737 6.89471 3.5202 8.49836 3.17293 10.2442C2.82567 11.99 3.0039 13.7996 3.68508 15.4442C4.36627 17.0887 5.51983 18.4943 6.99987 19.4832C8.47991 20.4722 10.22 21 12 21"/><path stroke-linejoin="round" stroke-linecap="round" stroke-width="1.5" stroke="#9BBCFD" d="M16 20L17 18L19.5 21L21 16"/></svg>