<svg xmlns="http://www.w3.org/2000/svg" fill="none" viewBox="0 0 24 24" height="24" width="24"><rect stroke-width="1.5" stroke="#9BBCFD" rx="1" height="6" width="4" y="6" x="11"/><path stroke-linejoin="round" stroke-linecap="round" stroke-width="1.5" stroke="#9BBCFD" d="M13 21L13 12"/><path stroke-linejoin="round" stroke-linecap="round" stroke-width="1.5" stroke="#9BBCFD" d="M13 6L13 3"/><rect stroke-width="1.5" stroke="#9BBCFD" rx="1" height="6" width="4" y="13" x="4"/><path stroke-linejoin="round" stroke-linecap="round" stroke-width="1.5" stroke="#9BBCFD" d="M6 21L6 19"/><path stroke-linejoin="round" stroke-linecap="round" stroke-width="1.5" stroke="#9BBCFD" d="M6 13L6 3"/><path stroke-linejoin="round" stroke-linecap="round" stroke-width="1.5" stroke="#9BBCFD" d="M19 19.9998V20.0098"/><path stroke-linejoin="round" stroke-linecap="round" stroke-width="1.5" stroke="#9BBCFD" d="M17 15C17 14.6044 17.1173 14.2178 17.3371 13.8889C17.5568 13.56 17.8692 13.3036 18.2346 13.1522C18.6001 13.0009 19.0022 12.9613 19.3902 13.0384C19.7781 13.1156 20.1345 13.3061 20.4142 13.5858C20.6939 13.8655 20.8844 14.2219 20.9616 14.6098C21.0387 14.9978 20.9991 15.3999 20.8478 15.7654C20.6964 16.1308 20.44 16.4432 20.1111 16.6629C20.0616 16.696 20.0108 16.7268 19.9589 16.7552C19.4742 17.0199 19 17.4477 19 18V18"/></svg>