<svg xmlns="http://www.w3.org/2000/svg" fill="none" viewBox="0 0 24 24" height="24" width="24"><path stroke-linejoin="round" stroke-linecap="round" stroke-width="1.5" stroke="#9BBCFD" d="M12 14L14 11.5L16 14L18 11"/><path stroke-dasharray="3 3" stroke-linejoin="round" stroke-linecap="square" stroke-width="1.5" stroke="#9BBCFD" d="M8 5V19"/><path stroke-width="1.5" stroke="#9BBCFD" d="M3 8C3 6.34315 4.34315 5 6 5H18C19.6569 5 21 6.34315 21 8V16C21 17.6569 19.6569 19 18 19H6C4.34315 19 3 17.6569 3 16V14.9481C3 14.3558 3.29604 13.8026 3.7889 13.4741V13.4741C4.84076 12.7728 4.84076 11.2272 3.7889 10.5259V10.5259C3.29604 10.1974 3 9.64421 3 9.05186V8Z"/></svg>